<?xml version="1.0" ?><svg style="enable-background:new 0 0 64 64;" version="1.1" viewBox="0 0 64 64" xml:space="preserve" xmlns="http://www.w3.org/2000/svg" xmlns:xlink="http://www.w3.org/1999/xlink"><style type="text/css">
	.st0{fill:#ffffff;}
</style><g id="GUIDES_64"/><g id="Layer_3"/><g id="Layer_2"><path class="st0" d="M55.2,4H9.4C6.6,4,4.3,6.3,4.3,9.1v45.8c0,2.8,2.3,5.1,5.1,5.1h45.8c2.8,0,5.1-2.3,5.1-5.1V9.1   C60.3,6.3,58,4,55.2,4z M22.3,13.5c2,0,3.7,1.6,3.7,3.6c0,2-1.7,3.6-3.7,3.6c-2,0-3.7-1.6-3.7-3.6C18.6,15.1,20.3,13.5,22.3,13.5z    M53.4,42.3c-1.5,4-3.8,5.7-6.7,5.7c-3.7,0-5.5-2.2-5.5-5.2c0-0.9,0.1-1.8,0.4-2.7l1.8-6.3c0.2-0.7,0.3-1.3,0.3-1.9   c0-2-1.2-3.3-3.2-3.3c-2.5,0-4.2,1.8-5.1,5.3L32,47.3c-0.1,0.4-0.4,0.7-0.8,0.7h-4.2c-0.6,0-1-0.5-0.8-1.1l0.7-2.7   c0-0.2-0.2-0.3-0.3-0.1c-1.7,2.5-4,3.9-6.8,3.9c-3.7,0-5.4-2.1-5.4-5.3c0-0.8,0.1-1.8,0.3-2.7l2.5-10.1c0.1-0.5-0.3-1.1-0.8-1.1h0   c-1.6,0-2.7-1.5-2.3-3c0.3-1,1.2-1.8,2.3-1.8h7.3c0.6,0,1,0.5,0.8,1.1L20.7,40c-0.3,1-0.4,1.9-0.4,2.5c0,1,0.5,1.3,1.3,1.5   c0.5,0.1,4.3,0,6.3-4.5c0-0.1,0-0.1,0.1-0.2l2.4-9.4c0.1-0.5-0.3-1.1-0.8-1.1h-0.1c-1.6,0-2.7-1.5-2.3-3c0.3-1,1.2-1.8,2.3-1.8h6.3   c0.6,0,1,0.5,0.8,1l-0.1,0.5c-0.2,0.8,0.8,1.4,1.4,0.8c1.6-1.6,3.7-2.8,5.7-2.8c3.4,0,6.2,2.4,6.2,7c0,1.2-0.2,2.5-0.6,3.9   l-1.7,6.2c-0.2,0.6-0.3,1.2-0.3,1.7c0,1.1,0.4,1.6,1.2,1.6c0.7,0,1.6-0.4,2.6-2.7c0.3-0.6,1-0.9,1.7-0.7   C53.3,40.9,53.7,41.6,53.4,42.3z"/></g></svg>