<svg width="2271" height="1169" viewBox="0 0 2271 1169" fill="none" xmlns="http://www.w3.org/2000/svg">
<path d="M139.862 584.448C180.119 584.448 213.179 561.747 251.835 550.417C353.139 520.724 436.243 504.66 541.097 494.431C619.811 486.751 695.43 443.327 768.885 417.038C852.476 387.121 938.34 372.688 1024.12 351.72C1074.97 339.289 1124.22 297.93 1177.26 297.93" stroke="white" stroke-width="3" stroke-linecap="round"/>
<path d="M288.062 416.489C251.249 416.489 172.266 399.983 151.938 440.64C138.241 468.034 131.169 498.535 122.298 527.364C108.396 572.546 166.88 564.688 193.653 564.688C220.081 564.688 275.902 547.018 267.753 510.348C266.07 502.777 230.671 463.232 254.031 456.557C277.427 449.873 352.823 509.063 376.981 525.168" stroke="white" stroke-width="3" stroke-linecap="round"/>
<path d="M367.102 426.369C381.289 440.556 447.013 517.247 473.585 493.333C482.156 485.619 476.853 443.412 477.976 434.053C481.524 404.491 487.818 380.68 505.421 357.209" stroke="white" stroke-width="3" stroke-linecap="round"/>
<path d="M604.22 357.209C604.22 416.274 613.466 457.466 623.98 515.288" stroke="white" stroke-width="3" stroke-linecap="round"/>
<path d="M742.538 238.65C712.937 238.65 673.379 226.035 673.379 263.35C673.379 295.95 860.963 276.224 889.64 283.659C915.867 290.458 913.978 343.815 903.911 361.6C864.517 431.195 785.655 434.45 722.779 465.888" stroke="white" stroke-width="3" stroke-linecap="round"/>
<path d="M880.857 1.53174C880.857 76.1426 917.872 148.869 940.137 218.89C958.414 276.37 976.813 333.379 1002.71 387.947C1010.57 404.501 1009.3 399.807 1009.3 386.849" stroke="white" stroke-width="3" stroke-linecap="round"/>
<path d="M1117.98 80.5712C1113.47 100.87 1077.33 111.798 1063.64 126.678C1026.13 167.44 1000.84 219.419 964.288 261.703C926.501 305.418 995.373 270.175 1033.45 268.839C1071.46 267.505 1109.58 268.29 1147.62 268.29" stroke="white" stroke-width="3" stroke-linecap="round"/>
<path d="M1305.69 31.1715C1221.22 31.1715 1192.9 42.5444 1179.45 129.971C1163.38 234.453 1313.77 184.668 1346.31 128.873C1378.38 73.9027 1325.45 27.9066 1325.45 100.331C1325.45 143.648 1345.21 272.087 1345.21 228.77" stroke="white" stroke-width="3" stroke-linecap="round"/>
<path d="M189.263 623.967C286.897 623.967 389.392 585.468 459.863 666.78C480.051 690.075 586.635 761.211 542.745 809.491C526.669 827.174 474.039 833.47 452.728 840.777C398.097 859.508 338.569 858.009 282.573 874.808C257.465 882.34 226.943 925.883 218.902 950.005" stroke="white" stroke-width="3" stroke-linecap="round"/>
<path d="M703.019 633.847C664.299 672.568 671.819 786.206 722.779 811.686" stroke="white" stroke-width="3" stroke-linecap="round"/>
<path d="M841.338 465.889C810.5 469.743 842.78 601.125 849.022 621.772C853.675 637.16 879.06 728.159 890.738 693.127" stroke="white" stroke-width="3" stroke-linecap="round"/>
<path d="M950.017 515.288C955.744 538.196 1048.82 499.278 1048.82 569.079C1048.82 627.752 973.371 614.088 930.257 614.088" stroke="white" stroke-width="3" stroke-linecap="round"/>
<path d="M1058.7 406.609C1058.7 470.542 1084.7 585.898 1140.48 624.516C1146.44 628.643 1147.62 544.368 1147.62 532.852C1147.62 497.126 1165 468.838 1188.23 441.738C1233.52 388.898 1266.11 483.08 1285.93 515.288" stroke="white" stroke-width="3" stroke-linecap="round"/>
<path d="M1414.37 396.729C1404.35 396.729 1357.81 389.759 1355.64 403.864C1344.83 474.158 1403.72 468.672 1459.38 465.888C1483.16 464.699 1456.09 370.723 1456.09 394.533C1456.09 410.086 1480.35 449.475 1493.41 456.009" stroke="white" stroke-width="3" stroke-linecap="round"/>
<path d="M1453.89 367.089C1478.7 394.655 1488.64 449.983 1526.35 463.693C1528.03 464.306 1533.64 298.451 1543.91 280.365C1571.38 232.001 1635.45 222.144 1647.1 277.072C1658.02 328.543 1671.25 383.378 1671.25 436.249" stroke="white" stroke-width="3" stroke-linecap="round"/>
<path d="M1.54395 1167.36C32.7656 1164.53 63.3607 1146.73 92.11 1136.08C242.25 1080.47 397.715 1038.83 549.331 987.329C701.265 935.721 855.408 883.544 1001.61 817.175C1130.87 758.501 1244.4 671.863 1375.95 617.381C1488.31 570.849 1607.67 551.846 1724.49 520.777C1794.93 502.043 1854.98 467.185 1920.45 436.249C2013.57 392.244 2107.16 358.257 2207.51 334.705C2227.01 330.128 2310.35 317.69 2244.29 317.69" stroke="white" stroke-width="3" stroke-linecap="round"/>
</svg>
